# xmcd CD database file
#
# Track frame offsets:
#	150
#	23008
#	45058
#	68919
#	91373
#	112503
#
# Disc length: 1822 seconds
#
# Revision: 0
# Processed by: cddbd v1.5.1PL0 Copyright (c) Steve Scherf et al.
# Submitted via: CDex 1.50
#
DISCID=35071c06
DTITLE=Mani Sharma - Samba
DYEAR=2004
DGENRE=Telugu
TTITLE0=Dam Damare Dam Dam
TTITLE1=Tagilinadi Rabba
TTITLE2=Kita Kitalu Pettamaku
TTITLE3=Nandamuri Chandamama
TTITLE4=Luxemburg Lux Sundari
TTITLE5=Namaste Namaste
EXTD=YEAR: 2004
EXTT0=
EXTT1=
EXTT2=
EXTT3=
EXTT4=
EXTT5=
PLAYORDER=
